<svg width="162" height="16" viewBox="0 0 162 16" fill="none" xmlns="http://www.w3.org/2000/svg">
<path d="M14.0995 2.78005L14.6395 12.32C14.7195 13.8 14.7995 14.56 16.1195 14.56V14.8H11.5395V14.56C12.8995 14.56 12.9795 13.8 12.8995 12.32L12.3395 2.08005L7.77945 14.8H7.29945L2.69945 2.06005L2.19945 11.36C2.09945 13.28 2.57945 14.56 3.73945 14.56V14.8H-0.000546874V14.56C1.07945 14.46 1.41945 13.26 1.51945 11.36L1.97945 2.56005C2.05945 1.00005 1.41945 0.640049 0.539453 0.480048V0.240048H3.91945L8.11945 11.9L12.2995 0.240048H15.5195V0.480048C14.1595 0.600048 14.0195 1.18005 14.0995 2.78005ZM23.1607 15.04C19.2407 15.04 16.7007 12.12 16.7007 7.56005C16.7007 3.08005 19.3207 4.86374e-05 23.2007 4.86374e-05C27.1207 4.86374e-05 29.6807 2.92005 29.6807 7.48005C29.6807 11.96 27.0407 15.04 23.1607 15.04ZM23.2007 14.48C26.1207 14.48 27.7007 11.68 27.7007 7.52005C27.7007 3.48005 26.0807 0.560049 23.1607 0.560049C20.2407 0.560049 18.6607 3.36005 18.6607 7.52005C18.6607 11.56 20.3007 14.48 23.2007 14.48ZM39.2098 0.480048V0.240048H42.9498V0.480048C41.7898 0.480048 41.5898 1.86005 41.5898 3.98005V15H41.1898L32.8298 2.10005V11.26C32.8298 13.18 33.1498 14.56 34.4098 14.56V14.8H30.5098V14.56C31.7098 14.56 32.1498 13.18 32.1498 11.26V2.62005C32.1498 1.24005 31.5098 0.640049 30.5098 0.480048V0.240048H33.7098L40.9098 11.46V3.98005C40.9098 1.86005 40.5298 0.480048 39.2098 0.480048ZM54.3209 0.240048L54.5809 3.24005H54.3409C53.3209 1.16005 52.8009 0.800048 50.7809 0.800048H50.0809V12.18C50.0809 13.66 50.1609 14.56 51.5209 14.56V14.8H46.8809V14.56C48.2409 14.56 48.3209 13.66 48.3209 12.18V0.800048H47.6009C45.5809 0.800048 45.0809 1.16005 44.0409 3.24005H43.8009L44.0809 0.240048H54.3209ZM61.6654 15.04C57.7454 15.04 55.2054 12.12 55.2054 7.56005C55.2054 3.08005 57.8254 4.86374e-05 61.7054 4.86374e-05C65.6254 4.86374e-05 68.1854 2.92005 68.1854 7.48005C68.1854 11.96 65.5454 15.04 61.6654 15.04ZM61.7054 14.48C64.6254 14.48 66.2054 11.68 66.2054 7.52005C66.2054 3.48005 64.5854 0.560049 61.6654 0.560049C58.7454 0.560049 57.1654 3.36005 57.1654 7.52005C57.1654 11.56 58.8054 14.48 61.7054 14.48ZM76.6309 0.480048V0.240048H79.9309V0.480048C79.0109 0.580048 78.0709 1.96005 76.9709 4.14005L74.7909 8.42005V12.18C74.7909 13.66 74.8709 14.56 76.2309 14.56V14.8H71.5909V14.56C72.9509 14.56 73.0309 13.66 73.0309 12.18V8.58005L70.0709 2.80005C69.1509 1.02005 68.7709 0.580048 68.1509 0.480048V0.240048H72.6909V0.480048C71.4909 0.560049 71.1909 1.14005 71.7709 2.26005L74.4709 7.60005L76.3309 3.90005C77.4709 1.62005 77.8709 0.660048 76.6309 0.480048ZM83.9654 0.0400481L88.2654 12.24C88.8654 13.92 89.2454 14.48 90.0854 14.56V14.8H85.5254V14.56C86.6454 14.48 87.0054 14 86.5654 12.72L85.5854 9.86005H80.7854L80.3654 11.06C79.5454 13.42 79.5654 14.44 80.9254 14.56V14.8H77.6254V14.56C78.3854 14.44 78.8454 13.34 79.7054 10.94L83.5254 0.0400481H83.9654ZM83.1854 2.94005L81.0054 9.22005H85.3454L83.1854 2.94005ZM98.7709 15.04C97.5909 15.04 95.9109 14.68 94.9909 14.16L94.8709 11.1H95.1109C95.9109 13.36 97.2309 14.48 98.9509 14.48C100.651 14.48 101.951 13.42 101.951 11.64C101.951 9.84005 100.691 9.10005 98.9709 8.24005L97.9709 7.74005C96.5509 7.04005 95.1709 6.12005 95.1709 4.00005C95.1709 1.70005 96.8509 4.86374e-05 99.2309 4.86374e-05C100.331 4.86374e-05 101.811 0.360048 102.771 0.860048V3.24005H102.531C101.751 1.36005 100.631 0.560049 99.1509 0.560049C97.4709 0.560049 96.5109 1.62005 96.5109 3.16005C96.5109 4.86005 97.6709 5.50005 98.8509 6.10005L99.8509 6.60005C101.611 7.48005 103.311 8.36005 103.311 10.78C103.311 13.26 101.451 15.04 98.7709 15.04ZM114.729 0.240048L114.989 3.24005H114.749C113.729 1.16005 113.209 0.800048 111.189 0.800048H110.489V12.18C110.489 13.66 110.569 14.56 111.929 14.56V14.8H107.289V14.56C108.649 14.56 108.729 13.66 108.729 12.18V0.800048H108.009C105.989 0.800048 105.489 1.16005 104.449 3.24005H104.209L104.489 0.240048H114.729ZM122.24 15.04C119 15.04 117.28 13.46 117.28 10.04V2.86005C117.28 1.38005 117.2 0.480048 115.84 0.480048V0.240048H120.5V0.480048C119.14 0.480048 119.06 1.38005 119.06 2.86005V9.90005C119.06 12.94 120.12 14.36 122.54 14.36C124.82 14.36 126.26 12.94 126.26 10V3.98005C126.26 2.02005 125.9 0.480048 124.74 0.480048V0.240048H128.34V0.480048C127.18 0.480048 126.94 2.02005 126.94 3.98005V10C126.94 13.38 125.26 15.04 122.24 15.04ZM134.911 14.8H129.231V14.56C130.591 14.56 130.671 13.66 130.671 12.18V2.86005C130.671 1.38005 130.591 0.480048 129.231 0.480048V0.240048H135.031C139.591 0.240048 142.211 2.84005 142.211 7.34005C142.211 11.94 139.311 14.8 134.911 14.8ZM134.991 14.24C138.571 14.24 140.231 11.76 140.231 7.46005C140.231 3.44005 138.531 0.800048 134.891 0.800048H133.191C132.711 0.800048 132.431 1.04005 132.431 1.52005V12.96C132.431 13.88 132.951 14.24 134.991 14.24ZM147.826 14.8H143.186V14.56C144.546 14.56 144.626 13.66 144.626 12.18V2.86005C144.626 1.38005 144.546 0.480048 143.186 0.480048V0.240048H147.826V0.480048C146.466 0.480048 146.386 1.38005 146.386 2.86005V12.18C146.386 13.66 146.466 14.56 147.826 14.56V14.8ZM155.304 15.04C151.384 15.04 148.844 12.12 148.844 7.56005C148.844 3.08005 151.464 4.86374e-05 155.344 4.86374e-05C159.264 4.86374e-05 161.824 2.92005 161.824 7.48005C161.824 11.96 159.184 15.04 155.304 15.04ZM155.344 14.48C158.264 14.48 159.844 11.68 159.844 7.52005C159.844 3.48005 158.224 0.560049 155.304 0.560049C152.384 0.560049 150.804 3.36005 150.804 7.52005C150.804 11.56 152.444 14.48 155.344 14.48Z" fill="black"/>
</svg>
